<svg
  xmlns="http://www.w3.org/2000/svg"
  viewBox="307 242 110 110"
  role="img"
  aria-label="qath"
>
  <style>
    path { fill: #0a0a0a; }
    @media (prefers-color-scheme: dark) { path { fill: #fafafa; } }
  </style>
  <path
    fill-rule="evenodd"
    clip-rule="evenodd"
    d="M382.05,249.317h19.443v19.803c-4.207-8.432-11.054-15.341-19.443-19.623V249.317L382.05,249.317z"
  />
  <path
    fill-rule="evenodd"
    clip-rule="evenodd"
    d="M401.485,287.972h0.007v0.573v0v55.926H382.05V322.38v-33.487v-0.006v-0.685v-0.006v-0.225h-0.004c-0.306-10.622-9.088-19.217-19.782-19.217l0,0c-10.884,0-19.789,8.905-19.789,19.79l0,0c0,10.884,8.905,19.79,19.789,19.79l0,0c6.228,0,11.806-2.915,15.441-7.448v23.7c-4.745,2.049-9.966,3.187-15.44,3.187h0c-21.575,0-39.228-17.653-39.228-39.228v0c0-21.576,17.653-39.229,39.228-39.229h0C383.648,249.317,401.176,266.659,401.485,287.972L401.485,287.972z"
  />
</svg>
